HIERARCHY
ROOT pelvis
{
OFFSET 0 0 0
CHANNELS 6 Xposition Yposition Zposition Xrotation Yrotation Zrotation
JOINT lfemur
{
OFFSET 0 104.741 0
CHANNELS 3 Xrotation Yrotation Zrotation
JOINT ltibia
{
OFFSET 0 0 -417.27
CHANNELS 3 Xrotation Yrotation Zrotation
JOINT lfoot
{
OFFSET 0 0 -429.744
CHANNELS 3 Xrotation Yrotation Zrotation
JOINT ltoes
{
OFFSET 122.101 0 0
CHANNELS 3 Xrotation Yrotation Zrotation
JOINT ltoe_EF
{
OFFSET 52.435 0 0
CHANNELS 3 Xrotation Yrotation Zrotation
End Site
{
OFFSET 52.435 0 0
}
}
}
}
}
}
JOINT rfemur
{
OFFSET 0 -104.741 0
CHANNELS 3 Xrotation Yrotation Zrotation
JOINT rtibia
{
OFFSET 0 0 -417.27
CHANNELS 3 Xrotation Yrotation Zrotation
JOINT rfoot
{
OFFSET 0 0 -420.802
CHANNELS 3 Xrotation Yrotation Zrotation
JOINT rtoes
{
OFFSET 145.971 0 0
CHANNELS 3 Xrotation Yrotation Zrotation
JOINT rtoe_EF
{
OFFSET 20.2604 0 0
CHANNELS 3 Xrotation Yrotation Zrotation
End Site
{
OFFSET 20.2604 0 0
}
}
}
}
}
}
JOINT thorax
{
OFFSET 0 0 192.451
CHANNELS 3 Xrotation Yrotation Zrotation
JOINT lclavicle
{
OFFSET 61.9711 0 353.504
CHANNELS 3 Xrotation Yrotation Zrotation
JOINT lhumerus
{
OFFSET -61.9711 177.235 27.1679
CHANNELS 3 Xrotation Yrotation Zrotation
JOINT lradius
{
OFFSET 0 0 -288.663
CHANNELS 3 Xrotation Yrotation Zrotation
JOINT lhand
{
OFFSET 0 0 -248.805
CHANNELS 3 Xrotation Yrotation Zrotation
End Site
{
OFFSET 0 0 -248.805
}
}
}
}
}
JOINT rclavicle
{
OFFSET 61.9711 0 353.504
CHANNELS 3 Xrotation Yrotation Zrotation
JOINT rhumerus
{
OFFSET -61.9711 -177.235 27.1679
CHANNELS 3 Xrotation Yrotation Zrotation
JOINT rradius
{
OFFSET 0 0 -288.663
CHANNELS 3 Xrotation Yrotation Zrotation
JOINT rhand
{
OFFSET 0 0 -248.805
CHANNELS 3 Xrotation Yrotation Zrotation
End Site
{
OFFSET 0 0 -248.805
}
}
}
}
}
JOINT Neck_Root
{
OFFSET 0 0 348.975
CHANNELS 3 Xrotation Yrotation Zrotation
JOINT head
{
OFFSET 34.2596 -9.05976 100.79
CHANNELS 3 Xrotation Yrotation Zrotation
End Site
{
OFFSET 34.2596 -9.05976 100.79
}
}
}
}
}
MOTION
Frames: 17
Frame Time: 0.00833333
-66.927917 229.829956 946.021423 -1.715405 3.309957 -0.020462 7.319090 -5.489522 25.770019 -0.000001 13.332742 0.000002 -0.217743 11.294353 -0.170882 0.000000 -10.517342 -0.000002 -0.000000 -0.000000 0.000000 -0.994079 -3.252301 -23.243782 -0.000000 5.439274 -0.000001 -6.903840 18.670291 -4.362190 0.000002 -4.819877 0.000003 0.000000 0.000000 0.000000 -0.881252 -3.351521 5.244259 -19.198771 -0.000000 -3.970512 35.999792 -11.321938 -51.416948 0.000008 -59.659530 10.571403 -8.542642 8.717027 -0.000008 22.724863 -0.000000 1.691671 -40.399796 -9.980643 47.866602 0.000002 -64.779228 19.306257 5.849159 -4.717153 0.000007 0.000000 0.000000 0.000000 0.681659 -1.499444 -6.078850 
-67.032104 229.564667 945.990112 -1.730208 3.289668 0.143360 7.359301 -5.545368 25.669370 -0.000001 13.399261 0.000003 -0.287392 11.295512 -0.225539 0.000000 -10.534794 -0.000003 0.000000 0.000000 0.000000 -0.968939 -3.217152 -23.380938 -0.000000 5.440537 -0.000002 -6.929256 18.642889 -4.382722 -0.000001 -4.843540 -0.000003 0.000000 0.000000 0.000000 -0.910022 -3.336953 5.255376 -19.133594 -0.000000 -3.989805 35.966159 -11.326009 -52.169724 -0.000001 -59.857376 10.793999 -8.010698 8.772970 0.000004 22.788670 0.000000 1.672119 -40.343028 -9.868068 48.221311 0.000013 -65.119094 19.140317 5.659737 -4.696046 -0.000008 0.000000 0.000000 0.000000 0.719468 -1.480697 -6.132090 
-67.116615 229.289154 945.954529 -1.758323 3.268042 0.304527 7.412951 -5.590383 25.580371 -0.000000 13.450503 0.000001 -0.367672 11.301345 -0.288499 -0.000000 -10.570781 0.000002 0.000000 0.000000 0.000000 -0.927417 -3.180020 -23.506241 -0.000000 5.439155 0.000002 -6.972170 18.628737 -4.412480 0.000001 -4.772697 0.000003 0.000000 0.000000 0.000000 -0.918600 -3.321352 5.251844 -19.086683 -0.000000 -4.002155 35.975480 -11.335879 -52.888019 -0.000004 -60.007311 10.875315 -7.716419 8.785435 -0.000007 22.836081 -0.000000 1.663077 -40.276490 -9.749027 48.571077 -0.000005 -65.398363 19.118222 5.426798 -4.847342 0.000003 0.000000 0.000000 0.000000 0.744667 -1.459887 -6.178144 
-66.269356 229.397949 946.176514 -1.633094 2.965096 0.378463 7.245463 -5.160718 25.593400 0.000000 13.249556 -0.000005 -0.525375 11.487466 -0.410237 0.000001 -10.605496 0.000003 0.000000 0.000000 0.000000 -1.051586 -2.757147 -23.658743 -0.000000 5.333594 -0.000003 -6.848333 18.631926 -4.332468 -0.000001 -4.801370 -0.000001 0.000000 -0.000000 -0.000000 -1.083400 -3.014488 5.338757 -19.032311 0.000000 -4.052793 36.001251 -11.329896 -53.575765 0.000006 -60.087566 11.023243 -7.433891 8.562510 0.000008 22.917520 -0.000000 1.649838 -40.216538 -9.609040 48.919425 -0.000008 -65.567032 18.818971 4.822703 -4.878370 -0.000000 0.000000 0.000000 0.000000 0.787192 -1.460285 -6.218156 
-66.301697 229.162811 946.170471 -1.656530 2.927378 0.536266 7.286956 -5.175518 25.509224 -0.000000 13.279241 0.000004 -0.602862 11.492734 -0.470689 0.000000 -10.640734 0.000002 -0.000000 -0.000000 0.000000 -1.014907 -2.694291 -23.781594 -0.000000 5.320547 0.000003 -6.886752 18.627950 -4.357743 0.000000 -4.843129 0.000002 0.000000 0.000000 0.000000 -1.089256 -2.981783 5.334411 -18.981339 -0.000000 -4.091611 36.027079 -11.323596 -54.252583 -0.000002 -60.113290 11.396687 -7.035435 8.353821 0.000009 22.933223 0.000000 1.646505 -40.102252 -9.484817 49.285099 0.000014 -65.599982 18.672303 4.229158 -4.730985 -0.000008 0.000000 0.000000 0.000000 0.807458 -1.427362 -6.259470 
-66.356430 228.913330 946.166077 -1.678678 2.910473 0.674929 7.330650 -5.209218 25.447617 0.000000 13.312493 0.000000 -0.682488 11.497982 -0.532787 -0.000000 -10.645029 -0.000001 0.000000 0.000000 0.000000 -0.978824 -2.658950 -23.883060 0.000000 5.315257 0.000003 -6.916969 18.610305 -4.379869 -0.000001 -4.794133 -0.000001 0.000000 0.000000 0.000000 -1.096980 -2.974067 5.335240 -18.938799 -0.000000 -4.116194 36.080379 -11.312689 -54.906557 -0.000005 -60.113263 11.984996 -6.629706 8.235402 0.000006 22.956888 0.000000 1.650015 -40.007703 -9.370860 49.686582 0.000021 -65.552057 18.811625 3.654665 -4.795403 -0.000000 0.000000 0.000000 0.000000 0.840631 -1.390114 -6.287685 
-66.422470 228.670486 946.143738 -1.699184 2.900690 0.805815 7.370995 -5.246606 25.382301 0.000001 13.341491 0.000002 -0.756456 11.511700 -0.590333 0.000000 -10.684263 0.000002 0.000000 0.000000 0.000000 -0.944686 -2.631183 -23.971037 0.000000 5.307824 -0.000004 -6.949654 18.590931 -4.403873 -0.000000 -4.740204 0.000004 0.000000 0.000000 0.000000 -1.100453 -2.978348 5.337033 -18.891356 0.000000 -4.167583 36.144581 -11.256535 -55.509692 -0.000006 -60.108869 12.589626 -6.234750 8.208428 0.000002 22.981445 0.000000 1.660647 -39.924684 -9.250046 50.049515 0.000021 -65.449103 18.755644 3.168304 -5.077895 -0.000012 0.000000 0.000000 0.000000 0.861524 -1.336257 -6.299632 
-66.437248 228.457870 946.127197 -1.722133 2.878808 0.923570 7.408006 -5.254991 25.321600 -0.000000 13.349050 0.000004 -0.826974 11.524578 -0.645154 0.000001 -10.715786 -0.000004 0.000000 0.000000 0.000000 -0.906351 -2.582556 -24.058023 -0.000000 5.284425 -0.000001 -6.973905 18.588519 -4.419845 -0.000000 -4.696109 0.000007 0.000000 0.000000 0.000000 -1.093887 -2.968267 5.334930 -18.846983 -0.000000 -4.208549 36.220818 -11.188416 -56.057902 0.000003 -60.105155 13.110263 -5.865065 8.180354 0.000000 22.995660 -0.000000 1.678415 -39.847221 -9.133613 50.406472 -0.000009 -65.304820 18.324914 2.741781 -5.286443 -0.000005 0.000000 0.000000 0.000000 0.872218 -1.293241 -6.306953 
-66.443130 228.245468 946.115417 -1.739127 2.860804 1.039507 7.436967 -5.264587 25.267270 -0.000000 13.351792 0.000001 -0.891088 11.544701 -0.694808 -0.000000 -10.702568 -0.000000 0.000000 0.000000 0.000000 -0.871430 -2.535268 -24.147324 -0.000000 5.251672 -0.000003 -7.001245 18.594054 -4.436567 -0.000000 -4.646942 -0.000001 0.000000 -0.000000 0.000000 -1.096184 -2.960624 5.324935 -18.804397 0.000000 -4.244280 36.318779 -11.111894 -56.553435 0.000006 -60.122252 13.447297 -5.409639 8.300219 -0.000001 23.032937 0.000000 1.694714 -39.814365 -9.017747 50.721586 -0.000009 -65.168216 17.921418 2.503136 -5.406478 0.000013 0.000000 0.000000 0.000000 0.894422 -1.252617 -6.298724 
-66.406364 228.063950 946.105896 -1.752447 2.825993 1.151926 7.458594 -5.251397 25.214523 -0.000000 13.345469 0.000003 -0.955673 11.556373 -0.744954 -0.000000 -10.738216 -0.000003 0.000000 0.000000 0.000000 -0.841393 -2.464302 -24.233768 -0.000000 5.210804 -0.000001 -7.020535 18.593020 -4.449137 -0.000001 -4.617283 -0.000003 0.000000 0.000000 0.000000 -1.097243 -2.932344 5.319790 -18.759741 0.000000 -4.302947 36.425647 -11.005762 -56.974643 -0.000001 -60.143488 13.711986 -4.945833 8.405967 0.000001 23.058570 0.000000 1.699251 -39.798913 -8.946173 51.004170 -0.000008 -65.012701 17.623323 2.586869 -5.478835 0.000012 0.000000 0.000000 0.000000 0.909984 -1.212094 -6.298336 
-66.372879 227.906342 946.112915 -1.762506 2.784381 1.247347 7.473713 -5.224192 25.154624 -0.000000 13.332000 0.000001 -0.999581 11.575744 -0.778791 -0.000000 -10.777983 0.000001 0.000000 0.000000 0.000000 -0.815889 -2.389225 -24.303513 0.000000 5.172481 0.000000 -7.036540 18.595997 -4.458971 0.000000 -4.632645 -0.000001 0.000000 0.000000 0.000000 -1.100085 -2.894347 5.312921 -18.712364 -0.000000 -4.344323 36.536950 -10.906102 -57.348576 -0.000002 -60.163642 13.985664 -4.644279 8.602528 0.000007 23.088638 0.000000 1.700076 -39.804273 -8.893975 51.352914 0.000001 -64.825657 16.901407 2.550998 -5.581244 -0.000002 0.000000 0.000000 0.000000 0.927879 -1.175263 -6.292284 
-66.355309 227.739716 946.123230 -1.778199 2.740171 1.330431 7.496615 -5.197387 25.087579 0.000000 13.329047 -0.000000 -1.031551 11.587449 -0.803460 0.000000 -10.825555 -0.000001 0.000000 0.000000 0.000000 -0.781452 -2.312797 -24.366338 0.000000 5.130123 0.000005 -7.052971 18.600720 -4.468807 0.000001 -4.600013 0.000002 0.000000 0.000000 0.000000 -1.093358 -2.852595 5.314902 -18.669226 0.000000 -4.376117 36.660322 -10.820983 -57.683907 -0.000006 -60.159221 14.106627 -4.477578 8.663850 -0.000005 23.155142 0.000000 1.652005 -39.888131 -8.927120 51.714845 0.000005 -64.623955 16.239307 2.693070 -5.752501 -0.000005 0.000000 0.000000 0.000000 0.944061 -1.138450 -6.282098 
-66.326401 227.603302 946.117920 -1.789488 2.701097 1.392865 7.510391 -5.167063 25.025718 -0.000001 13.319468 0.000001 -1.034597 11.592646 -0.805718 0.000001 -10.802630 -0.000001 0.000000 -0.000000 0.000000 -0.752790 -2.243437 -24.412779 -0.000000 5.090819 0.000000 -7.064598 18.606490 -4.475370 0.000000 -4.512473 0.000000 0.000000 0.000000 0.000000 -1.087060 -2.816259 5.314945 -18.643099 -0.000000 -4.392697 36.803751 -10.723713 -57.935137 0.000005 -60.168328 14.030826 -4.527625 8.717770 -0.000001 23.195442 -0.000000 1.654472 -39.946628 -8.912486 51.974578 0.000020 -64.448600 15.843192 3.030081 -5.933250 0.000005 0.000000 0.000000 0.000000 0.957727 -1.105056 -6.257811 
-66.296356 227.459961 946.108887 -1.799386 2.672316 1.443890 7.524032 -5.145180 24.977593 -0.000001 13.311484 0.000000 -1.034517 11.593373 -0.805640 -0.000000 -10.728124 -0.000001 0.000000 0.000000 0.000000 -0.724622 -2.185809 -24.451953 -0.000000 5.046653 -0.000001 -7.071402 18.619320 -4.477724 0.000002 -4.527519 -0.000002 -0.000000 -0.000000 -0.000000 -1.080511 -2.791791 5.325547 -18.612750 -0.000000 -4.423335 36.947560 -10.611476 -58.154374 0.000005 -60.174597 13.926753 -4.620542 8.593285 -0.000001 23.246658 0.000000 1.663433 -40.033933 -8.872896 52.238754 -0.000005 -64.301912 15.209275 3.379645 -6.254810 -0.000008 0.000000 0.000000 0.000000 0.966398 -1.069775 -6.239097 
-66.515083 227.277466 946.035461 -1.818160 2.735468 1.480443 7.556270 -5.250690 24.941269 0.000000 13.352061 0.000000 -1.014957 11.567753 -0.790941 0.000000 -10.768631 -0.000003 0.000000 0.000000 0.000000 -0.693527 -2.261467 -24.441628 0.000000 5.051895 0.000000 -7.132676 18.601523 -4.519964 -0.000000 -4.491627 0.000001 0.000000 0.000000 0.000000 -1.068561 -2.867828 5.339073 -18.581762 0.000000 -4.433852 37.089228 -10.510073 -58.334375 -0.000015 -60.180161 13.789666 -4.869703 8.584067 -0.000001 23.262161 -0.000000 1.641757 -40.123695 -8.965383 52.619216 0.000003 -64.123936 14.870128 3.724188 -6.535985 -0.000002 0.000000 0.000000 0.000000 0.983060 -1.029181 -6.221422 
-66.599495 227.130966 946.005859 -1.832039 2.741459 1.498885 7.579051 -5.270175 24.912811 -0.000001 13.359240 0.000003 -1.012292 11.555710 -0.789117 0.000000 -10.798655 -0.000000 -0.000000 -0.000000 0.000000 -0.665097 -2.264382 -24.428295 0.000000 5.038527 0.000001 -7.173297 18.591688 -4.547688 0.000000 -4.464341 -0.000001 0.000000 0.000000 0.000000 -1.057347 -2.875717 5.355791 -18.564567 0.000001 -4.415612 37.250863 -10.441746 -58.505651 -0.000018 -60.191174 13.594640 -5.215599 8.585759 0.000007 23.270669 -0.000001 1.644585 -40.197031 -9.021345 52.866498 0.000005 -64.007277 14.956736 4.150722 -6.755812 -0.000003 0.000000 0.000000 0.000000 1.000257 -1.008564 -6.194200 
-66.635674 227.037506 945.983093 -1.838303 2.738498 1.505637 7.589120 -5.270718 24.886380 -0.000001 13.359703 -0.000003 -1.003459 11.546217 -0.782424 0.000000 -10.808007 0.000003 0.000000 0.000000 0.000000 -0.647160 -2.253182 -24.421271 0.000000 5.019091 -0.000002 -7.187992 18.593104 -4.556918 -0.000001 -4.470301 -0.000006 0.000000 0.000000 0.000000 -1.044075 -2.875675 5.379453 -18.554777 0.000000 -4.382696 37.408663 -10.389401 -58.674217 -0.000015 -60.198260 13.511166 -5.554919 8.608993 -0.000001 23.296170 -0.000000 1.641846 -40.305997 -9.075353 53.063970 0.000011 -63.929630 15.277389 4.671044 -7.024422 0.000018 0.000000 0.000000 0.000000 0.999475 -0.992986 -6.169590 
